# xmcd
#
# Track frame offsets: 
#        150
#        18246
#        36796
#        57033
#        75536
#        97258
#        123610
#        141966
#        163808
#        179899
#        203392
#        226642
#        252984
#        274710
#
# Disc length: 3979 seconds
#
# Revision: 5
# Processed by: cddbd v1.5.1PL2 Copyright (c) Steve Scherf et al.
# Submitted via: ExactAudioCopy v0.95b3
#
DISCID=bd0f890e
DTITLE=Diana Krall - The Girl In The Other Room
DYEAR=2004
DGENRE=Jazz
TTITLE0=Stop This World
TTITLE1=The Girl in the Other Room
TTITLE2=Temptation
TTITLE3=Almost Blue
TTITLE4=I've Changed My Address
TTITLE5=Love Me Like a Man
TTITLE6=I'm Pulling Through
TTITLE7=Black Crow
TTITLE8=Narrow Daylight
TTITLE9=Abandoned Masquerade
TTITLE10=I'm Coming Through
TTITLE11=Departure Bay
TTITLE12=I'll Never Be The Same (Bonus Track)
TTITLE13=Sometimes I Just Freak Out (Bonus Track)
EXTD=
EXTT0=
EXTT1=
EXTT2=
EXTT3=
EXTT4=
EXTT5=
EXTT6=
EXTT7=
EXTT8=
EXTT9=
EXTT10=
EXTT11=
EXTT12=
EXTT13=
PLAYORDER=
